<mxfile host="app.diagrams.net" agent="Mozilla/5.0 (Macintosh; Intel Mac OS X 10_15_7) AppleWebKit/537.36 (KHTML, like Gecko) Chrome/128.0.0.0 Safari/537.36" version="24.7.17">
  <diagram id="C5RBs43oDa-KdzZeNtuy" name="Page-1">
    <mxGraphModel dx="1193" dy="659" grid="0" gridSize="10" guides="1" tooltips="1" connect="1" arrows="1" fold="1" page="1" pageScale="1" pageWidth="827" pageHeight="1169" math="0" shadow="0">
      <root>
        <mxCell id="WIyWlLk6GJQsqaUBKTNV-0" />
        <mxCell id="WIyWlLk6GJQsqaUBKTNV-1" parent="WIyWlLk6GJQsqaUBKTNV-0" />
        <mxCell id="BQJppqLo9rrCwkleT4R7-25" value="" style="rounded=0;whiteSpace=wrap;html=1;fillColor=none;dashed=1;dashPattern=8 8;" vertex="1" parent="WIyWlLk6GJQsqaUBKTNV-1">
          <mxGeometry x="40" y="365" width="640" height="220" as="geometry" />
        </mxCell>
        <mxCell id="WIyWlLk6GJQsqaUBKTNV-2" value="" style="rounded=0;html=1;jettySize=auto;orthogonalLoop=1;fontSize=11;endArrow=classic;endFill=1;endSize=8;strokeWidth=1;shadow=0;labelBackgroundColor=none;edgeStyle=orthogonalEdgeStyle;" parent="WIyWlLk6GJQsqaUBKTNV-1" source="WIyWlLk6GJQsqaUBKTNV-3" target="WIyWlLk6GJQsqaUBKTNV-6" edge="1">
          <mxGeometry relative="1" as="geometry" />
        </mxCell>
        <mxCell id="WIyWlLk6GJQsqaUBKTNV-3" value="main" style="rounded=1;whiteSpace=wrap;html=1;fontSize=12;glass=0;strokeWidth=1;shadow=0;" parent="WIyWlLk6GJQsqaUBKTNV-1" vertex="1">
          <mxGeometry x="300" y="25" width="120" height="40" as="geometry" />
        </mxCell>
        <mxCell id="WIyWlLk6GJQsqaUBKTNV-5" value="" style="edgeStyle=orthogonalEdgeStyle;rounded=0;html=1;jettySize=auto;orthogonalLoop=1;fontSize=11;endArrow=classic;endFill=1;endSize=8;strokeWidth=1;shadow=0;labelBackgroundColor=none;" parent="WIyWlLk6GJQsqaUBKTNV-1" source="WIyWlLk6GJQsqaUBKTNV-6" target="WIyWlLk6GJQsqaUBKTNV-7" edge="1">
          <mxGeometry y="10" relative="1" as="geometry">
            <mxPoint as="offset" />
          </mxGeometry>
        </mxCell>
        <mxCell id="WIyWlLk6GJQsqaUBKTNV-6" value="mode" style="rhombus;whiteSpace=wrap;html=1;shadow=0;fontFamily=Helvetica;fontSize=12;align=center;strokeWidth=1;spacing=6;spacingTop=-4;" parent="WIyWlLk6GJQsqaUBKTNV-1" vertex="1">
          <mxGeometry x="310" y="125" width="100" height="80" as="geometry" />
        </mxCell>
        <mxCell id="WIyWlLk6GJQsqaUBKTNV-7" value="Correction Mode" style="rounded=1;whiteSpace=wrap;html=1;fontSize=12;glass=0;strokeWidth=1;shadow=0;" parent="WIyWlLk6GJQsqaUBKTNV-1" vertex="1">
          <mxGeometry x="460" y="145" width="120" height="40" as="geometry" />
        </mxCell>
        <mxCell id="BQJppqLo9rrCwkleT4R7-1" value="" style="endArrow=classic;html=1;rounded=0;exitX=0;exitY=0.5;exitDx=0;exitDy=0;endFill=1;" edge="1" parent="WIyWlLk6GJQsqaUBKTNV-1" source="WIyWlLk6GJQsqaUBKTNV-6">
          <mxGeometry width="50" height="50" relative="1" as="geometry">
            <mxPoint x="220" y="195" as="sourcePoint" />
            <mxPoint x="260" y="165" as="targetPoint" />
          </mxGeometry>
        </mxCell>
        <mxCell id="BQJppqLo9rrCwkleT4R7-2" value="AstroInertial Mode" style="rounded=1;whiteSpace=wrap;html=1;fontSize=12;glass=0;strokeWidth=1;shadow=0;" vertex="1" parent="WIyWlLk6GJQsqaUBKTNV-1">
          <mxGeometry x="140" y="145" width="120" height="40" as="geometry" />
        </mxCell>
        <mxCell id="BQJppqLo9rrCwkleT4R7-6" value="" style="rounded=0;html=1;jettySize=auto;orthogonalLoop=1;fontSize=11;endArrow=classic;endFill=1;endSize=8;strokeWidth=1;shadow=0;labelBackgroundColor=none;edgeStyle=orthogonalEdgeStyle;entryX=0.5;entryY=1;entryDx=0;entryDy=0;" edge="1" parent="WIyWlLk6GJQsqaUBKTNV-1" target="WIyWlLk6GJQsqaUBKTNV-7">
          <mxGeometry relative="1" as="geometry">
            <mxPoint x="520" y="264" as="sourcePoint" />
            <mxPoint x="520" y="205" as="targetPoint" />
          </mxGeometry>
        </mxCell>
        <mxCell id="BQJppqLo9rrCwkleT4R7-7" value="" style="rounded=0;html=1;jettySize=auto;orthogonalLoop=1;fontSize=11;endArrow=classic;endFill=1;endSize=8;strokeWidth=1;shadow=0;labelBackgroundColor=none;edgeStyle=orthogonalEdgeStyle;entryX=0.5;entryY=1;entryDx=0;entryDy=0;" edge="1" parent="WIyWlLk6GJQsqaUBKTNV-1" target="BQJppqLo9rrCwkleT4R7-2">
          <mxGeometry relative="1" as="geometry">
            <mxPoint x="200" y="265" as="sourcePoint" />
            <mxPoint x="200" y="205" as="targetPoint" />
          </mxGeometry>
        </mxCell>
        <mxCell id="BQJppqLo9rrCwkleT4R7-8" value="Correction Martix" style="rounded=1;whiteSpace=wrap;html=1;fontSize=12;glass=0;strokeWidth=1;shadow=0;" vertex="1" parent="WIyWlLk6GJQsqaUBKTNV-1">
          <mxGeometry x="460" y="264" width="120" height="40" as="geometry" />
        </mxCell>
        <mxCell id="BQJppqLo9rrCwkleT4R7-9" value="AstroInertial&amp;nbsp;Martix" style="rounded=1;whiteSpace=wrap;html=1;fontSize=12;glass=0;strokeWidth=1;shadow=0;" vertex="1" parent="WIyWlLk6GJQsqaUBKTNV-1">
          <mxGeometry x="140" y="264" width="120" height="40" as="geometry" />
        </mxCell>
        <mxCell id="BQJppqLo9rrCwkleT4R7-10" value="Martix" style="rounded=1;whiteSpace=wrap;html=1;fontSize=12;glass=0;strokeWidth=1;shadow=0;" vertex="1" parent="WIyWlLk6GJQsqaUBKTNV-1">
          <mxGeometry x="300" y="405" width="120" height="40" as="geometry" />
        </mxCell>
        <mxCell id="BQJppqLo9rrCwkleT4R7-11" value="Rotation" style="rounded=1;whiteSpace=wrap;html=1;fontSize=12;glass=0;strokeWidth=1;shadow=0;" vertex="1" parent="WIyWlLk6GJQsqaUBKTNV-1">
          <mxGeometry x="300" y="465" width="120" height="40" as="geometry" />
        </mxCell>
        <mxCell id="BQJppqLo9rrCwkleT4R7-12" value="Astro Martix" style="rounded=1;whiteSpace=wrap;html=1;fontSize=12;glass=0;strokeWidth=1;shadow=0;" vertex="1" parent="WIyWlLk6GJQsqaUBKTNV-1">
          <mxGeometry x="60" y="405" width="120" height="40" as="geometry" />
        </mxCell>
        <mxCell id="BQJppqLo9rrCwkleT4R7-13" value="Conjugate Martix" style="rounded=1;whiteSpace=wrap;html=1;fontSize=12;glass=0;strokeWidth=1;shadow=0;" vertex="1" parent="WIyWlLk6GJQsqaUBKTNV-1">
          <mxGeometry x="60" y="465" width="120" height="40" as="geometry" />
        </mxCell>
        <mxCell id="BQJppqLo9rrCwkleT4R7-14" value="Time Martix" style="rounded=1;whiteSpace=wrap;html=1;fontSize=12;glass=0;strokeWidth=1;shadow=0;" vertex="1" parent="WIyWlLk6GJQsqaUBKTNV-1">
          <mxGeometry x="60" y="525" width="120" height="40" as="geometry" />
        </mxCell>
        <mxCell id="BQJppqLo9rrCwkleT4R7-15" value="Geography Martix" style="rounded=1;whiteSpace=wrap;html=1;fontSize=12;glass=0;strokeWidth=1;shadow=0;" vertex="1" parent="WIyWlLk6GJQsqaUBKTNV-1">
          <mxGeometry x="540" y="405" width="120" height="40" as="geometry" />
        </mxCell>
        <mxCell id="BQJppqLo9rrCwkleT4R7-17" value="" style="endArrow=classic;html=1;rounded=0;exitX=1;exitY=0.5;exitDx=0;exitDy=0;entryX=0.5;entryY=1;entryDx=0;entryDy=0;" edge="1" parent="WIyWlLk6GJQsqaUBKTNV-1" source="BQJppqLo9rrCwkleT4R7-12" target="BQJppqLo9rrCwkleT4R7-9">
          <mxGeometry width="50" height="50" relative="1" as="geometry">
            <mxPoint x="180" y="475" as="sourcePoint" />
            <mxPoint x="230" y="425" as="targetPoint" />
            <Array as="points">
              <mxPoint x="200" y="425" />
            </Array>
          </mxGeometry>
        </mxCell>
        <mxCell id="BQJppqLo9rrCwkleT4R7-18" value="" style="endArrow=none;html=1;rounded=0;exitX=1;exitY=0.5;exitDx=0;exitDy=0;" edge="1" parent="WIyWlLk6GJQsqaUBKTNV-1" source="BQJppqLo9rrCwkleT4R7-13">
          <mxGeometry width="50" height="50" relative="1" as="geometry">
            <mxPoint x="190" y="495" as="sourcePoint" />
            <mxPoint x="200" y="425" as="targetPoint" />
            <Array as="points">
              <mxPoint x="200" y="485" />
            </Array>
          </mxGeometry>
        </mxCell>
        <mxCell id="BQJppqLo9rrCwkleT4R7-19" value="" style="endArrow=none;html=1;rounded=0;exitX=1;exitY=0.5;exitDx=0;exitDy=0;" edge="1" parent="WIyWlLk6GJQsqaUBKTNV-1" source="BQJppqLo9rrCwkleT4R7-14">
          <mxGeometry width="50" height="50" relative="1" as="geometry">
            <mxPoint x="200" y="555" as="sourcePoint" />
            <mxPoint x="200" y="485" as="targetPoint" />
            <Array as="points">
              <mxPoint x="200" y="545" />
            </Array>
          </mxGeometry>
        </mxCell>
        <mxCell id="BQJppqLo9rrCwkleT4R7-20" value="" style="endArrow=none;html=1;rounded=0;entryX=0;entryY=0.5;entryDx=0;entryDy=0;" edge="1" parent="WIyWlLk6GJQsqaUBKTNV-1" target="BQJppqLo9rrCwkleT4R7-10">
          <mxGeometry width="50" height="50" relative="1" as="geometry">
            <mxPoint x="200" y="425" as="sourcePoint" />
            <mxPoint x="260" y="405" as="targetPoint" />
          </mxGeometry>
        </mxCell>
        <mxCell id="BQJppqLo9rrCwkleT4R7-21" value="" style="endArrow=none;html=1;rounded=0;entryX=0;entryY=0.5;entryDx=0;entryDy=0;" edge="1" parent="WIyWlLk6GJQsqaUBKTNV-1" target="BQJppqLo9rrCwkleT4R7-11">
          <mxGeometry width="50" height="50" relative="1" as="geometry">
            <mxPoint x="200" y="485" as="sourcePoint" />
            <mxPoint x="260" y="445" as="targetPoint" />
          </mxGeometry>
        </mxCell>
        <mxCell id="BQJppqLo9rrCwkleT4R7-22" value="" style="endArrow=classic;html=1;rounded=0;entryX=0.5;entryY=1;entryDx=0;entryDy=0;exitX=0;exitY=0.5;exitDx=0;exitDy=0;" edge="1" parent="WIyWlLk6GJQsqaUBKTNV-1" source="BQJppqLo9rrCwkleT4R7-15" target="BQJppqLo9rrCwkleT4R7-8">
          <mxGeometry width="50" height="50" relative="1" as="geometry">
            <mxPoint x="470" y="445" as="sourcePoint" />
            <mxPoint x="520" y="395" as="targetPoint" />
            <Array as="points">
              <mxPoint x="520" y="425" />
            </Array>
          </mxGeometry>
        </mxCell>
        <mxCell id="BQJppqLo9rrCwkleT4R7-23" value="" style="endArrow=none;html=1;rounded=0;exitX=1;exitY=0.5;exitDx=0;exitDy=0;" edge="1" parent="WIyWlLk6GJQsqaUBKTNV-1" source="BQJppqLo9rrCwkleT4R7-10">
          <mxGeometry width="50" height="50" relative="1" as="geometry">
            <mxPoint x="450" y="515" as="sourcePoint" />
            <mxPoint x="520" y="425" as="targetPoint" />
          </mxGeometry>
        </mxCell>
        <mxCell id="BQJppqLo9rrCwkleT4R7-24" value="" style="endArrow=none;html=1;rounded=0;exitX=1;exitY=0.5;exitDx=0;exitDy=0;" edge="1" parent="WIyWlLk6GJQsqaUBKTNV-1" source="BQJppqLo9rrCwkleT4R7-11">
          <mxGeometry width="50" height="50" relative="1" as="geometry">
            <mxPoint x="460" y="505" as="sourcePoint" />
            <mxPoint x="520" y="425" as="targetPoint" />
            <Array as="points">
              <mxPoint x="520" y="485" />
            </Array>
          </mxGeometry>
        </mxCell>
        <mxCell id="BQJppqLo9rrCwkleT4R7-26" value="/matrixs" style="text;html=1;align=center;verticalAlign=middle;whiteSpace=wrap;rounded=0;" vertex="1" parent="WIyWlLk6GJQsqaUBKTNV-1">
          <mxGeometry x="40" y="365" width="60" height="30" as="geometry" />
        </mxCell>
        <mxCell id="BQJppqLo9rrCwkleT4R7-27" value="Result" style="rounded=1;whiteSpace=wrap;html=1;fontSize=12;glass=0;strokeWidth=1;shadow=0;" vertex="1" parent="WIyWlLk6GJQsqaUBKTNV-1">
          <mxGeometry x="300" y="304" width="120" height="40" as="geometry" />
        </mxCell>
        <mxCell id="BQJppqLo9rrCwkleT4R7-28" value="Service" style="rounded=1;whiteSpace=wrap;html=1;fontSize=12;glass=0;strokeWidth=1;shadow=0;" vertex="1" parent="WIyWlLk6GJQsqaUBKTNV-1">
          <mxGeometry x="300" y="245" width="120" height="40" as="geometry" />
        </mxCell>
        <mxCell id="BQJppqLo9rrCwkleT4R7-29" value="" style="endArrow=none;html=1;rounded=0;entryX=0;entryY=0.5;entryDx=0;entryDy=0;" edge="1" parent="WIyWlLk6GJQsqaUBKTNV-1" target="BQJppqLo9rrCwkleT4R7-28">
          <mxGeometry width="50" height="50" relative="1" as="geometry">
            <mxPoint x="200" y="235" as="sourcePoint" />
            <mxPoint x="270" y="205" as="targetPoint" />
            <Array as="points">
              <mxPoint x="280" y="235" />
              <mxPoint x="280" y="265" />
            </Array>
          </mxGeometry>
        </mxCell>
        <mxCell id="BQJppqLo9rrCwkleT4R7-30" value="" style="endArrow=none;html=1;rounded=0;exitX=0;exitY=0.5;exitDx=0;exitDy=0;" edge="1" parent="WIyWlLk6GJQsqaUBKTNV-1" source="BQJppqLo9rrCwkleT4R7-27">
          <mxGeometry width="50" height="50" relative="1" as="geometry">
            <mxPoint x="240" y="345" as="sourcePoint" />
            <mxPoint x="280" y="265" as="targetPoint" />
            <Array as="points">
              <mxPoint x="280" y="324" />
            </Array>
          </mxGeometry>
        </mxCell>
        <mxCell id="BQJppqLo9rrCwkleT4R7-31" value="" style="endArrow=none;html=1;rounded=0;exitX=1;exitY=0.5;exitDx=0;exitDy=0;" edge="1" parent="WIyWlLk6GJQsqaUBKTNV-1" source="BQJppqLo9rrCwkleT4R7-28">
          <mxGeometry width="50" height="50" relative="1" as="geometry">
            <mxPoint x="420" y="295" as="sourcePoint" />
            <mxPoint x="520" y="235" as="targetPoint" />
            <Array as="points">
              <mxPoint x="440" y="265" />
              <mxPoint x="440" y="235" />
            </Array>
          </mxGeometry>
        </mxCell>
        <mxCell id="BQJppqLo9rrCwkleT4R7-32" value="" style="endArrow=none;html=1;rounded=0;" edge="1" parent="WIyWlLk6GJQsqaUBKTNV-1">
          <mxGeometry width="50" height="50" relative="1" as="geometry">
            <mxPoint x="420" y="325" as="sourcePoint" />
            <mxPoint x="440" y="265" as="targetPoint" />
            <Array as="points">
              <mxPoint x="440" y="325" />
            </Array>
          </mxGeometry>
        </mxCell>
        <mxCell id="BQJppqLo9rrCwkleT4R7-33" value="" style="rounded=0;whiteSpace=wrap;html=1;fillColor=none;dashed=1;dashPattern=8 8;" vertex="1" parent="WIyWlLk6GJQsqaUBKTNV-1">
          <mxGeometry x="40" y="225" width="640" height="140" as="geometry" />
        </mxCell>
        <mxCell id="BQJppqLo9rrCwkleT4R7-34" value="/calculations" style="text;html=1;align=center;verticalAlign=middle;whiteSpace=wrap;rounded=0;" vertex="1" parent="WIyWlLk6GJQsqaUBKTNV-1">
          <mxGeometry x="40" y="224" width="90" height="31" as="geometry" />
        </mxCell>
        <mxCell id="BQJppqLo9rrCwkleT4R7-35" value="" style="rounded=0;whiteSpace=wrap;html=1;fillColor=none;dashed=1;dashPattern=8 8;" vertex="1" parent="WIyWlLk6GJQsqaUBKTNV-1">
          <mxGeometry x="40" y="85" width="640" height="140" as="geometry" />
        </mxCell>
        <mxCell id="BQJppqLo9rrCwkleT4R7-36" value="/modes" style="text;html=1;align=center;verticalAlign=middle;whiteSpace=wrap;rounded=0;" vertex="1" parent="WIyWlLk6GJQsqaUBKTNV-1">
          <mxGeometry x="40" y="85" width="60" height="30" as="geometry" />
        </mxCell>
      </root>
    </mxGraphModel>
  </diagram>
</mxfile>
